# xmcd CD database file
#
# Track frame offsets:
#	150
#	32025
#	50444
#	68133
#	81057
#	114951
#	140410
#	164329
#	197636
#	212546
#	241331
#	264037
#	306803
#	330340
#
# Disc length: 4799 seconds
#
# Revision: 0
# Processed by: cddbd v1.4PL0 Copyright (c) Steve Scherf et al.
# Submitted via: CDex 1.50
#
DISCID=b212bd0e
DTITLE=Links - May days
DYEAR=2003
DGENRE=Jazz
TTITLE0=Something wrong with time
TTITLE1=Coming from the place you do
TTITLE2=Night nurses part I
TTITLE3=Night nurses part II
TTITLE4=Strange little story
TTITLE5=Evening by the lake
TTITLE6=May days
TTITLE7=Maria
TTITLE8=Alone
TTITLE9=Big deal
TTITLE10=Shades of bebop heaven
TTITLE11=Rengsdorf
TTITLE12=Paula's song
TTITLE13=Pier hotel
EXTD=YEAR: 2003
EXTT0=
EXTT1=
EXTT2=
EXTT3=
EXTT4=
EXTT5=
EXTT6=
EXTT7=
EXTT8=
EXTT9=
EXTT10=
EXTT11=
EXTT12=
EXTT13=
PLAYORDER=
